<svg viewBox="0 0 360 300" fill="none" xmlns="http://www.w3.org/2000/svg" role="img" aria-label="Peta dan penanda lokasi peternak">
              <circle cx="180" cy="150" r="122" fill="#FFF9E1"/>
              <rect x="84" y="94" width="192" height="130" rx="18" fill="#ffffff" stroke="#E4E7EB" stroke-width="2"/>
              <path d="M94 150c30-8 44 30 76 20s40-36 94-30" stroke="#FFEA9D" stroke-width="9" stroke-linecap="round"/>
              <path d="M120 214c18-40 40-18 60-58" stroke="#EEF0F2" stroke-width="7" stroke-linecap="round"/>
              <circle cx="126" cy="130" r="8" fill="#00AA5B" opacity=".8"/>
              <rect x="224" y="176" width="20" height="18" rx="4" fill="#00AA5B" opacity=".8"/>
              <ellipse cx="184" cy="238" rx="28" ry="8" fill="#422006" opacity=".1"/>
              <path d="M184 108c-27 0-39 27-20 53l20 30 20-30c19-26 7-53-20-53Z" fill="#FFDE6B" stroke="#CA8A04" stroke-width="2.5"/>
              <circle cx="184" cy="140" r="15" fill="#ffffff"/>
            </svg>